<svg width="16" height="16" viewBox="0 0 16 16" fill="none" xmlns="http://www.w3.org/2000/svg">
<rect x="9" y="4" width="1" height="1" transform="rotate(90 9 4)" fill="#3F4D5A"/>
<rect width="1" height="1" transform="matrix(-4.37114e-08 1 1 4.37114e-08 9 5)" fill="#3F4D5A"/>
<rect width="1" height="1" transform="matrix(-4.37114e-08 1 1 4.37114e-08 8 5)" fill="#3F4D5A"/>
<rect width="1" height="1" transform="matrix(-4.37114e-08 1 1 4.37114e-08 6 5)" fill="#3F4D5A"/>
<rect width="1" height="1" transform="matrix(-4.37114e-08 1 1 4.37114e-08 9 6)" fill="#3F4D5A"/>
<rect width="1" height="1" transform="matrix(-4.37114e-08 1 1 4.37114e-08 10 5)" fill="#3F4D5A"/>
<rect width="1" height="1" transform="matrix(-4.37114e-08 1 1 4.37114e-08 5 5)" fill="#3F4D5A"/>
<rect width="1" height="1" transform="matrix(-4.37114e-08 1 1 4.37114e-08 10 6)" fill="#3F4D5A"/>
<rect width="1" height="1" transform="matrix(-4.37114e-08 1 1 4.37114e-08 10 7)" fill="#3F4D5A"/>
<rect width="1" height="1" transform="matrix(-4.37114e-08 1 1 4.37114e-08 9 8)" fill="#3F4D5A"/>
<rect width="1" height="1" transform="matrix(-4.37114e-08 1 1 4.37114e-08 6 8)" fill="#3F4D5A"/>
<rect width="1" height="1" transform="matrix(-4.37114e-08 1 1 4.37114e-08 5 7)" fill="#3F4D5A"/>
<rect width="1" height="1" transform="matrix(-4.37114e-08 1 1 4.37114e-08 5 6)" fill="#3F4D5A"/>
<rect width="1" height="1" transform="matrix(-4.37114e-08 1 1 4.37114e-08 9 7)" fill="#3F4D5A"/>
<rect width="1" height="1" transform="matrix(-4.37114e-08 1 1 4.37114e-08 7 5)" fill="#3F4D5A"/>
<rect width="1" height="1" transform="matrix(-4.37114e-08 1 1 4.37114e-08 7 6)" fill="#3F4D5A"/>
<rect width="1" height="1" transform="matrix(-4.37114e-08 1 1 4.37114e-08 7 7)" fill="#3F4D5A"/>
<rect width="1" height="1" transform="matrix(-4.37114e-08 1 1 4.37114e-08 8 8)" fill="#3F4D5A"/>
<rect width="1" height="1" transform="matrix(-4.37114e-08 1 1 4.37114e-08 8 9)" fill="#3F4D5A"/>
<rect width="1" height="1" transform="matrix(-4.37114e-08 1 1 4.37114e-08 8 10)" fill="#3F4D5A"/>
<rect width="1" height="1" transform="matrix(-4.37114e-08 1 1 4.37114e-08 8 11)" fill="#3F4D5A"/>
<rect width="1" height="1" transform="matrix(-4.37114e-08 1 1 4.37114e-08 7 8)" fill="#3F4D5A"/>
<rect width="1" height="1" transform="matrix(-4.37114e-08 1 1 4.37114e-08 7 9)" fill="#3F4D5A"/>
<rect width="1" height="1" transform="matrix(-4.37114e-08 1 1 4.37114e-08 7 10)" fill="#3F4D5A"/>
<rect width="1" height="1" transform="matrix(-4.37114e-08 1 1 4.37114e-08 7 11)" fill="#3F4D5A"/>
<rect width="1" height="1" transform="matrix(-4.37114e-08 1 1 4.37114e-08 6 6)" fill="#3F4D5A"/>
<rect width="1" height="1" transform="matrix(-4.37114e-08 1 1 4.37114e-08 6 7)" fill="#3F4D5A"/>
<rect x="7.99999" y="4" width="1" height="1" transform="rotate(90 7.99999 4)" fill="#3F4D5A"/>
<rect width="1" height="1" transform="matrix(-4.37114e-08 1 1 4.37114e-08 15 4)" fill="#3F4D5A"/>
<rect x="1" y="4" width="1" height="1" transform="rotate(90 1 4)" fill="#3F4D5A"/>
<rect width="1" height="1" transform="matrix(-4.37114e-08 1 1 4.37114e-08 10 14)" fill="#3F4D5A"/>
<rect width="1" height="1" transform="matrix(-4.37114e-08 1 1 4.37114e-08 10 13)" fill="#3F4D5A"/>
<rect width="1" height="1" transform="matrix(-4.37114e-08 1 1 4.37114e-08 12 8)" fill="#3F4D5A"/>
<rect width="1" height="1" transform="matrix(-4.37114e-08 1 1 4.37114e-08 13 6)" fill="#3F4D5A"/>
<rect width="1" height="1" transform="matrix(-4.37114e-08 1 1 4.37114e-08 13 4)" fill="#3F4D5A"/>
<rect width="1" height="1" transform="matrix(-4.37114e-08 1 1 4.37114e-08 12 3)" fill="#3F4D5A"/>
<rect width="1" height="1" transform="matrix(-4.37114e-08 1 1 4.37114e-08 11 3)" fill="#3F4D5A"/>
<rect width="1" height="1" transform="matrix(-4.37114e-08 1 1 4.37114e-08 10 2)" fill="#3F4D5A"/>
<rect width="1" height="1" transform="matrix(-4.37114e-08 1 1 4.37114e-08 9 2)" fill="#3F4D5A"/>
<rect width="1" height="1" transform="matrix(-4.37114e-08 1 1 4.37114e-08 8 1)" fill="#3F4D5A"/>
<rect width="1" height="1" transform="matrix(-4.37114e-08 1 1 4.37114e-08 7 1)" fill="#3F4D5A"/>
<rect width="1" height="1" transform="matrix(-4.37114e-08 1 1 4.37114e-08 6 2)" fill="#3F4D5A"/>
<rect width="1" height="1" transform="matrix(-4.37114e-08 1 1 4.37114e-08 5 2)" fill="#3F4D5A"/>
<rect width="1" height="1" transform="matrix(-4.37114e-08 1 1 4.37114e-08 4 3)" fill="#3F4D5A"/>
<rect width="1" height="1" transform="matrix(-4.37114e-08 1 1 4.37114e-08 3 3)" fill="#3F4D5A"/>
<rect width="1" height="1" transform="matrix(-4.37114e-08 1 1 4.37114e-08 2 6)" fill="#3F4D5A"/>
<rect width="1" height="1" transform="matrix(-4.37114e-08 1 1 4.37114e-08 2 7)" fill="#3F4D5A"/>
<rect width="1" height="1" transform="matrix(-4.37114e-08 1 1 4.37114e-08 3 8)" fill="#3F4D5A"/>
<rect width="1" height="1" transform="matrix(-4.37114e-08 1 1 4.37114e-08 3 9)" fill="#3F4D5A"/>
<rect width="1" height="1" transform="matrix(-4.37114e-08 1 1 4.37114e-08 4 11)" fill="#3F4D5A"/>
<rect width="1" height="1" transform="matrix(-4.37114e-08 1 1 4.37114e-08 5 12)" fill="#3F4D5A"/>
<rect width="1" height="1" transform="matrix(-4.37114e-08 1 1 4.37114e-08 5 13)" fill="#3F4D5A"/>
<rect width="1" height="2" transform="matrix(-4.37114e-08 1 1 4.37114e-08 1 4)" fill="#3F4D5A"/>
<rect width="1" height="1" transform="matrix(-4.37114e-08 1 1 4.37114e-08 1 5)" fill="#3F4D5A"/>
<rect width="2" height="1" transform="matrix(-4.37114e-08 1 1 4.37114e-08 14 4)" fill="#3F4D5A"/>
<rect width="1" height="1" transform="matrix(-4.37114e-08 1 1 4.37114e-08 10 12)" fill="#3F4D5A"/>
<rect width="1" height="1" transform="matrix(-4.37114e-08 1 1 4.37114e-08 11 11)" fill="#3F4D5A"/>
<rect width="1" height="1" transform="matrix(-4.37114e-08 1 1 4.37114e-08 12 9)" fill="#3F4D5A"/>
<rect width="1" height="1" transform="matrix(-4.37114e-08 1 1 4.37114e-08 13 7)" fill="#3F4D5A"/>
<rect x="6" y="14" width="1" height="1" transform="rotate(90 6 14)" fill="#3F4D5A"/>
<rect width="1" height="1" transform="matrix(-4.37114e-08 1 1 4.37114e-08 9 15)" fill="#3F4D5A"/>
<rect width="1" height="4" transform="matrix(-4.37114e-08 1 1 4.37114e-08 6 14)" fill="#3F4D5A"/>
<rect width="1" height="1" transform="matrix(-4.37114e-08 1 1 4.37114e-08 8 15)" fill="#3F4D5A"/>
<rect width="1" height="1" transform="matrix(-4.37114e-08 1 1 4.37114e-08 7 15)" fill="#3F4D5A"/>
<rect width="1" height="1" transform="matrix(-4.37114e-08 1 1 4.37114e-08 6 15)" fill="#3F4D5A"/>
<rect width="1" height="1" transform="matrix(-4.37114e-08 1 1 4.37114e-08 8 0)" fill="#3F4D5A"/>
<rect width="1" height="1" transform="matrix(-4.37114e-08 1 1 4.37114e-08 7 0)" fill="#3F4D5A"/>
<rect width="1" height="1" transform="matrix(4.37114e-08 1 1 -4.37114e-08 12 10)" fill="#3F4D5A"/>
<rect x="4" y="10" width="1" height="1" transform="rotate(90 4 10)" fill="#3F4D5A"/>
<rect width="1" height="1" transform="matrix(4.37114e-08 1 1 -4.37114e-08 12 11)" fill="#3F4D5A"/>
<rect x="4" y="11" width="1" height="1" transform="rotate(90 4 11)" fill="#3F4D5A"/>
<rect width="1" height="1" transform="matrix(4.37114e-08 1 1 -4.37114e-08 11 2)" fill="#3F4D5A"/>
<rect x="5" y="2" width="1" height="1" transform="rotate(90 5 2)" fill="#3F4D5A"/>
<rect x="3" y="3" width="1" height="1" transform="rotate(90 3 3)" fill="#3F4D5A"/>
<rect x="15" y="3" width="1" height="1" transform="rotate(90 15 3)" fill="#3F4D5A"/>
<rect width="1" height="1" transform="matrix(4.37114e-08 1 1 -4.37114e-08 15 5)" fill="#3F4D5A"/>
<rect x="1" y="5" width="1" height="1" transform="rotate(90 1 5)" fill="#3F4D5A"/>
<rect width="1" height="1" transform="matrix(4.37114e-08 1 1 -4.37114e-08 11 12)" fill="#3F4D5A"/>
<rect x="5" y="12" width="1" height="1" transform="rotate(90 5 12)" fill="#3F4D5A"/>
<rect width="1" height="1" transform="matrix(4.37114e-08 1 1 -4.37114e-08 11 13)" fill="#3F4D5A"/>
<rect x="5" y="13" width="1" height="1" transform="rotate(90 5 13)" fill="#3F4D5A"/>
<rect width="1" height="1" transform="matrix(4.37114e-08 1 1 -4.37114e-08 14 7)" fill="#3F4D5A"/>
<rect x="2" y="7" width="1" height="1" transform="rotate(90 2 7)" fill="#3F4D5A"/>
<rect width="1" height="1" transform="matrix(4.37114e-08 1 1 -4.37114e-08 11 14)" fill="#3F4D5A"/>
<rect x="5" y="14" width="1" height="1" transform="rotate(90 5 14)" fill="#3F4D5A"/>
<rect width="1" height="1" transform="matrix(4.37114e-08 1 1 -4.37114e-08 14 8)" fill="#3F4D5A"/>
<rect x="2" y="8" width="1" height="1" transform="rotate(90 2 8)" fill="#3F4D5A"/>
<rect width="1" height="1" transform="matrix(4.37114e-08 1 1 -4.37114e-08 12 12)" fill="#3F4D5A"/>
<rect x="4" y="12" width="1" height="1" transform="rotate(90 4 12)" fill="#3F4D5A"/>
<rect width="1" height="1" transform="matrix(4.37114e-08 1 1 -4.37114e-08 11 1)" fill="#3F4D5A"/>
<rect x="5" y="1" width="1" height="1" transform="rotate(90 5 1)" fill="#3F4D5A"/>
<rect width="1" height="1" transform="matrix(4.37114e-08 1 1 -4.37114e-08 10 1)" fill="#3F4D5A"/>
<rect x="6" y="1" width="1" height="1" transform="rotate(90 6 1)" fill="#3F4D5A"/>
<rect width="1" height="1" transform="matrix(4.37114e-08 1 1 -4.37114e-08 9 1)" fill="#3F4D5A"/>
<rect x="7" y="1" width="1" height="1" transform="rotate(90 7 1)" fill="#3F4D5A"/>
<rect width="1" height="1" transform="matrix(4.37114e-08 1 1 -4.37114e-08 14 6)" fill="#3F4D5A"/>
<rect x="2" y="6" width="1" height="1" transform="rotate(90 2 6)" fill="#3F4D5A"/>
<rect width="1" height="1" transform="matrix(4.37114e-08 1 1 -4.37114e-08 15 6)" fill="#3F4D5A"/>
<rect x="1" y="6" width="1" height="1" transform="rotate(90 1 6)" fill="#3F4D5A"/>
<rect width="1" height="1" transform="matrix(4.37114e-08 1 1 -4.37114e-08 13 10)" fill="#3F4D5A"/>
<rect x="3" y="10" width="1" height="1" transform="rotate(90 3 10)" fill="#3F4D5A"/>
<rect width="1" height="1" transform="matrix(4.37114e-08 1 1 -4.37114e-08 13 9)" fill="#3F4D5A"/>
<rect x="3" y="9" width="1" height="1" transform="rotate(90 3 9)" fill="#3F4D5A"/>
<rect width="1" height="1" transform="matrix(4.37114e-08 1 1 -4.37114e-08 12 2)" fill="#3F4D5A"/>
<rect x="4" y="2" width="1" height="1" transform="rotate(90 4 2)" fill="#3F4D5A"/>
<rect x="2" y="3" width="1" height="1" transform="rotate(90 2 3)" fill="#3F4D5A"/>
<rect x="14" y="3" width="1" height="1" transform="rotate(90 14 3)" fill="#3F4D5A"/>
<rect width="1" height="1" transform="matrix(4.37114e-08 1 1 -4.37114e-08 13 8)" fill="#3F4D5A"/>
<rect x="3" y="8" width="1" height="1" transform="rotate(90 3 8)" fill="#3F4D5A"/>
</svg>
